<svg width="73" height="73" viewBox="0 0 73 73" fill="none" xmlns="http://www.w3.org/2000/svg">
<g clip-path="url(#clip0_7_61)">
<path d="M36.5 0C16.3429 0 0 16.3429 0 36.5C0 56.6571 16.3429 73 36.5 73C56.6571 73 73 56.6571 73 36.5C73 16.3429 56.6571 0 36.5 0ZM54.4276 25.0055L48.4355 53.2322C47.9945 55.2336 46.8021 55.7203 45.1383 54.7774L36.0133 48.0553L31.6151 52.2954C31.1893 52.8429 30.5292 53.1927 29.7901 53.1927C29.784 53.1927 29.781 53.1927 29.7749 53.1927L30.4228 43.9034L47.3344 28.6282C48.0644 27.9803 47.1702 27.6123 46.1999 28.2601L25.3067 41.4184L16.3033 38.6079C14.3567 37.9904 14.3019 36.6612 16.714 35.7061L51.8939 22.1464C53.5303 21.5502 54.9538 22.5357 54.4245 25.0086L54.4276 25.0055Z" fill="#333333"/>
</g>
<defs>
<clipPath id="clip0_7_61">
<rect width="73" height="73" fill="white"/>
</clipPath>
</defs>
</svg>
