<svg width="73" height="73" viewBox="0 0 73 73" fill="none" xmlns="http://www.w3.org/2000/svg">
<g clip-path="url(#clip0_7_65)">
<path d="M36.5 0C18.4781 0 0 3.87812 0 31.9375C0 46.9938 5.24688 56.3469 15.9688 60.6813V69.1219C15.9688 70.7188 16.8813 72.0875 18.25 72.7719C18.7062 73 19.3906 73 19.8469 73C20.7594 73 21.9 72.5437 22.5844 71.8594L30.7969 63.6469C32.6219 63.6469 34.4469 63.875 36.5 63.875C54.5219 63.875 73 59.9969 73 31.9375C73 3.87812 54.5219 0 36.5 0ZM35.3594 23.2687C39.4656 23.2687 42.8875 26.6906 42.8875 30.7969C42.8875 32.1656 41.975 33.0781 40.6062 33.0781C39.2375 33.0781 38.325 32.1656 38.325 30.7969C38.325 29.2 36.9562 27.8312 35.3594 27.8312C33.9906 27.8312 33.0781 26.9187 33.0781 25.55C33.0781 24.1812 33.9906 23.2687 35.3594 23.2687ZM33.0781 18.4781C33.0781 17.1094 33.9906 16.1969 35.3594 16.1969C43.3438 16.1969 49.9594 22.8125 49.9594 30.7969C49.9594 32.1656 49.0469 33.0781 47.6781 33.0781C46.3094 33.0781 45.3969 32.1656 45.3969 30.7969C45.3969 25.3219 40.8344 20.7594 35.3594 20.7594C33.9906 20.7594 33.0781 19.6188 33.0781 18.4781ZM51.7844 46.7656C50.8719 49.5031 47.45 51.7844 44.4844 52.2406C43.8 52.4688 43.1156 52.4688 42.2031 52.4688C40.3781 52.4688 37.6406 52.0125 32.85 49.9594C27.375 47.6781 21.9 42.8875 17.5656 36.7281V36.5C16.1969 34.4469 13.6875 30.5688 13.6875 26.4625C13.6875 21.4438 16.1969 18.9344 17.1094 17.7938C18.4781 16.6531 20.075 15.9688 21.9 15.9688C22.3563 15.9688 22.5844 15.9688 23.0406 15.9688C24.6375 15.9688 25.7781 16.425 26.9188 18.7062L27.8312 20.5312C28.5156 22.3563 29.4281 24.4094 29.6562 24.6375C30.3406 26.0063 30.3406 27.1469 29.6562 28.2875C29.4281 28.9719 28.9719 29.4281 28.5156 29.8844C28.2875 30.3406 28.0594 30.5687 27.8312 30.5687C27.6031 30.7969 27.6031 30.7969 27.375 31.025C28.0594 32.1656 29.4281 34.2188 31.2531 35.8156C33.9906 38.325 36.0437 39.0094 37.1844 39.4656C37.6406 39.0094 38.0969 38.0969 38.7812 37.4125L39.0094 36.9563C40.15 35.3594 41.975 34.9031 43.8 35.5875C44.7125 36.0438 49.7312 38.325 49.7312 38.325L50.1875 38.5531C50.8719 39.0094 51.7844 39.2375 52.2406 40.15C52.925 42.2031 52.2406 45.1688 51.7844 46.7656ZM54.75 33.0781C53.3812 33.0781 52.4688 32.1656 52.4688 30.7969C52.4688 21.4438 44.7125 13.6875 35.3594 13.6875C33.9906 13.6875 33.0781 12.775 33.0781 11.4062C33.0781 10.0375 33.9906 9.125 35.3594 9.125C47.2219 9.125 57.0312 18.9344 57.0312 30.7969C57.0312 32.1656 56.1188 33.0781 54.75 33.0781Z" fill="#333333"/>
</g>
<defs>
<clipPath id="clip0_7_65">
<rect width="73" height="73" fill="white"/>
</clipPath>
</defs>
</svg>
