<svg width="73" height="73" viewBox="0 0 73 73" fill="none" xmlns="http://www.w3.org/2000/svg">
<path fill-rule="evenodd" clip-rule="evenodd" d="M57.7467 51.542C56.8671 54.032 53.3703 56.092 50.5817 56.6944C48.6728 57.0997 46.1834 57.4203 37.7957 53.9444C28.3751 50.0414 15.2935 36.1385 15.2935 26.8867C15.2935 22.1767 18.0091 16.6923 22.7578 16.6923C25.0427 16.6923 25.5464 16.7369 26.2983 18.5405C27.1779 20.6655 29.3241 25.9009 29.5796 26.4375C30.6345 28.6392 28.5065 29.928 26.9625 31.8448C26.4698 32.4217 25.9114 33.0456 26.5355 34.1189C27.156 35.1705 29.3022 38.6683 32.4558 41.476C36.5292 45.1052 39.8325 46.2638 41.015 46.7567C41.8947 47.1218 42.9459 47.0368 43.5883 46.3504C44.4023 45.4705 45.4133 44.0106 46.4426 42.572C47.1689 41.5424 48.0924 41.4138 49.0597 41.779C49.713 42.0053 58.0167 45.8617 58.3671 46.4787C58.6263 46.9278 58.6264 49.0519 57.7467 51.542ZM36.5073 0H36.489C16.3666 0 0 16.3715 0 36.5C0 44.4813 2.57328 51.886 6.94963 57.8921L2.40172 71.4548L16.4287 66.9725C22.1993 70.7916 29.0868 73 36.5073 73C56.6297 73 73 56.6285 73 36.5C73 16.3715 56.6297 0 36.5073 0Z" fill="#333333"/>
</svg>
